<svg xmlns="http://www.w3.org/2000/svg" xmlns:xlink="http://www.w3.org/1999/xlink" version="1.1" x="0px" y="0px" viewBox="0 0 128 128" style="enable-background:new 0 0 128 128;" xml:space="preserve"><g><g><g><path fill="#ffffff"  d="M69.497,106.321H59.414c-1.104,0-2-0.896-2-2v-7.269c-3.966-0.857-7.785-2.452-11.201-4.68l-5.088,5.128     c-0.375,0.378-0.887,0.591-1.42,0.591l0,0c-0.533,0-1.044-0.213-1.42-0.591l-7.129-7.186c-0.773-0.78-0.773-2.038,0-2.817     l5.106-5.146c-2.218-3.449-3.806-7.306-4.656-11.311h-7.194c-1.104,0-2-0.896-2-2V58.878c0-1.104,0.896-2,2-2h7.194     c0.851-4.004,2.438-7.861,4.656-11.311l-5.106-5.146c-0.773-0.78-0.773-2.038,0-2.817l7.129-7.186     c0.751-0.757,2.089-0.757,2.84,0l5.088,5.128c3.417-2.228,7.235-3.823,11.201-4.68v-7.269c0-1.104,0.896-2,2-2h10.083     c1.104,0,2,0.896,2,2v7.269c3.966,0.857,7.785,2.452,11.201,4.68l5.088-5.128c0.751-0.757,2.089-0.757,2.84,0l7.129,7.186     c0.773,0.78,0.773,2.038,0,2.817l-5.106,5.146c2.218,3.45,3.806,7.306,4.656,11.311h7.194c1.104,0,2,0.896,2,2v10.163     c0,1.104-0.896,2-2,2h-7.194c-0.851,4.005-2.438,7.861-4.656,11.311l5.106,5.146c0.773,0.78,0.773,2.038,0,2.817l-7.129,7.186     c-0.751,0.757-2.089,0.757-2.84,0l-5.088-5.128c-3.417,2.228-7.235,3.823-11.201,4.68v7.269     C71.497,105.425,70.602,106.321,69.497,106.321z M61.414,102.321h6.083v-6.926c0-0.981,0.712-1.818,1.681-1.975     c4.511-0.729,8.863-2.548,12.585-5.26c0.798-0.581,1.901-0.494,2.598,0.208l4.846,4.884l4.312-4.346L88.65,84     c-0.688-0.693-0.774-1.781-0.205-2.574c2.693-3.754,4.499-8.146,5.224-12.699c0.154-0.971,0.992-1.686,1.975-1.686h6.856v-6.163     h-6.856c-0.983,0-1.821-0.715-1.975-1.686c-0.724-4.553-2.531-8.943-5.224-12.699c-0.569-0.793-0.482-1.881,0.205-2.574     l4.868-4.907l-4.312-4.346l-4.846,4.884c-0.696,0.703-1.8,0.791-2.598,0.208c-3.722-2.712-8.074-4.531-12.585-5.26     c-0.969-0.157-1.681-0.993-1.681-1.975v-6.926h-6.083v6.926c0,0.981-0.712,1.818-1.681,1.975     c-4.511,0.729-8.863,2.548-12.585,5.26c-0.797,0.582-1.901,0.495-2.598-0.208l-4.846-4.884l-4.312,4.346l4.868,4.907     c0.688,0.693,0.774,1.781,0.205,2.574c-2.693,3.755-4.5,8.146-5.224,12.699c-0.154,0.971-0.992,1.686-1.975,1.686h-6.856v6.163     h6.856c0.983,0,1.821,0.715,1.975,1.686c0.725,4.553,2.531,8.944,5.224,12.699c0.569,0.793,0.482,1.881-0.205,2.574l-4.868,4.907     l4.312,4.346l4.846-4.884c0.697-0.701,1.8-0.789,2.598-0.208c3.722,2.712,8.074,4.531,12.585,5.26     c0.969,0.157,1.681,0.993,1.681,1.975V102.321z"/><path fill="#ffffff"  d="M64.456,80.896c-9.274,0-16.819-7.598-16.819-16.936c0-9.339,7.545-16.937,16.819-16.937s16.819,7.598,16.819,16.937     C81.275,73.298,73.73,80.896,64.456,80.896z M64.456,51.023c-7.069,0-12.819,5.803-12.819,12.937     c0,7.133,5.75,12.936,12.819,12.936s12.819-5.803,12.819-12.936C77.275,56.827,71.524,51.023,64.456,51.023z"/></g><g><g><path fill="#ffffff"  d="M116.476,34.094c-0.649,0-1.286-0.315-1.671-0.898C104.062,16.929,83.94,6,64.735,6      c-17.835,0-34.341,8.122-45.284,22.284c-0.676,0.874-1.932,1.033-2.805,0.359c-0.875-0.675-1.035-1.931-0.36-2.806      C27.992,10.688,45.651,2,64.735,2c20.493,0,41.956,11.651,53.408,28.992c0.609,0.921,0.355,2.162-0.567,2.771      C117.236,33.987,116.854,34.094,116.476,34.094z"/><path fill="#ffffff"  d="M116.474,34.094h-9.415c-1.104,0-2-0.896-2-2s0.896-2,2-2h7.398l-0.055-6.815c-0.009-1.104,0.879-2.007,1.984-2.016      c1.059-0.009,2.007,0.879,2.016,1.984l0.071,8.832c0.004,0.533-0.205,1.046-0.58,1.425      C117.518,33.881,117.007,34.094,116.474,34.094z"/></g><g><path fill="#ffffff"  d="M80,122.396c-0.852,0-1.641-0.548-1.909-1.404c-0.329-1.054,0.258-2.176,1.313-2.505      C104.086,110.776,122,87.634,122,63.459c0-7.106-1.277-14.041-3.794-20.613c-0.395-1.031,0.121-2.188,1.152-2.583      c1.03-0.396,2.188,0.121,2.583,1.152c2.693,7.03,4.059,14.446,4.059,22.043c0,25.879-19.095,50.627-45.403,58.846      C80.398,122.367,80.197,122.396,80,122.396z"/><path fill="#ffffff"  d="M88.036,126c-0.274,0-0.552-0.057-0.817-0.176l-8.036-3.604c-0.532-0.238-0.933-0.696-1.099-1.255      c-0.166-0.558-0.081-1.161,0.234-1.651l4.77-7.422c0.598-0.929,1.834-1.198,2.764-0.602c0.929,0.597,1.199,1.834,0.602,2.764      l-3.514,5.467l5.916,2.653c1.008,0.452,1.458,1.635,1.006,2.643C89.529,125.561,88.799,126,88.036,126z"/></g><g><path fill="#ffffff"  d="M64.735,124.918c-33.781,0-61.265-27.57-61.265-61.459c0-7.546,3.56-16.812,6.159-23.577l0.353-0.919      c0.396-1.031,1.55-1.549,2.583-1.152c1.031,0.396,1.547,1.552,1.152,2.583l-0.354,0.922C10.876,47.79,7.47,56.655,7.47,63.459      c0,31.683,25.689,57.459,57.265,57.459c0.794,0,1.584-0.016,2.371-0.048c1.118-0.043,2.035,0.813,2.08,1.917      s-0.813,2.035-1.917,2.08C66.429,124.901,65.583,124.918,64.735,124.918z"/><path fill="#ffffff"  d="M15.579,50.069c-0.766,0-1.497-0.443-1.829-1.188l-2.873-6.463l-5.97,3.041c-0.983,0.499-2.188,0.11-2.69-0.875      c-0.501-0.984-0.11-2.188,0.875-2.69l7.849-3.998c0.49-0.249,1.059-0.287,1.576-0.103c0.517,0.183,0.937,0.571,1.159,1.072      l3.729,8.39c0.449,1.01-0.006,2.191-1.015,2.64C16.126,50.014,15.851,50.069,15.579,50.069z"/></g></g></g></g></svg>
