<svg viewBox="0 0 40 32" version="1.1" x="0px" y="0px" width="0px" xmlns="http://www.w3.org/2000/svg">
  <title>Code</title>
  <desc>Created with Sketch.</desc>
  <g stroke="none" stroke-width="1" fill="none" fill-rule="evenodd" transform="matrix(1, 0, 0, 1, 3.664352, 3.772142)">
    <g transform="translate(-69.000000, -1117.000000)" fill="#ffffff">
      <path fill="#ffffff" d="M100.6565,1128.05797 L93.1075,1119.41397 C92.6265,1118.86197 91.8265,1118.86197 91.3435,1119.41397 C90.8855,1119.93897 90.8855,1120.77297 91.3435,1121.29797 L98.0695,1128.99997 L91.3435,1136.70197 C90.8855,1137.22697 90.8855,1138.06097 91.3435,1138.58597 C91.8265,1139.13797 92.6265,1139.13797 93.1075,1138.58597 L100.6565,1129.94197 C101.1155,1129.41697 101.1155,1128.58297 100.6565,1128.05797 M78.6565,1119.41387 C78.1745,1118.86187 77.3745,1118.86187 76.8925,1119.41387 L69.3435,1128.05787 C68.8855,1128.58287 68.8855,1129.41687 69.3435,1129.94187 L76.8925,1138.58587 C77.3745,1139.13787 78.1745,1139.13787 78.6565,1138.58587 C79.1145,1138.06087 79.1145,1137.22687 78.6565,1136.70187 L71.9305,1128.99987 L78.6565,1121.29787 C79.1145,1120.77287 79.1145,1119.93887 78.6565,1119.41387 M87.4417,1117.03647 C86.8737,1116.88447 86.2887,1117.22147 86.1357,1117.78947 L80.2757,1139.65847 C80.1237,1140.22647 80.4617,1140.81047 81.0307,1140.96347 C81.5997,1141.11647 82.1847,1140.77847 82.3377,1140.21047 L88.1967,1118.34247 C88.3487,1117.77347 88.0107,1117.18947 87.4417,1117.03647"/>
    </g>
  </g>
</svg>
