<svg xmlns="http://www.w3.org/2000/svg" xmlns:xlink="http://www.w3.org/1999/xlink" version="1.1" x="0px" y="0px" viewBox="0 0 66 66" style="enable-background:new 0 0 66 66;" xml:space="preserve"><g><g><path fill="#ffffff" d="M22.5,51l-2-0.8c0,0,0-0.1-0.1-0.1l0.9-2c0.2-0.4,0.1-0.8-0.2-1.1l-2.4-2.4c-0.3-0.3-0.7-0.4-1.1-0.2l-2,0.9    c0,0-0.1,0-0.1,0l-0.8-2c-0.1-0.4-0.5-0.7-0.9-0.7h-3.4c-0.4,0-0.8,0.3-0.9,0.7l-0.8,2c0,0-0.1,0-0.1,0l-2-0.9    c-0.4-0.2-0.8-0.1-1.1,0.2L3,47c-0.3,0.3-0.4,0.7-0.2,1.1l0.9,2c0,0,0,0.1,0,0.1L1.7,51C1.3,51.1,1,51.5,1,51.9v3.4    c0,0.4,0.3,0.8,0.7,0.9L3.7,57c0,0,0,0.1,0,0.1l-0.9,2C2.7,59.5,2.8,60,3,60.3l2.4,2.4c0.3,0.3,0.7,0.4,1.1,0.2l2-0.9    c0,0,0.1,0,0.1,0.1l0.8,2c0.1,0.4,0.5,0.7,0.9,0.7h3.4c0.4,0,0.8-0.3,0.9-0.7l0.8-2c0,0,0.1,0,0.1-0.1l2,0.9    c0.4,0.2,0.8,0.1,1.1-0.2l2.4-2.4c0.3-0.3,0.4-0.7,0.2-1.1l-0.9-2c0,0,0-0.1,0.1-0.1l2-0.8c0.4-0.1,0.6-0.5,0.6-0.9v-3.4    C23.2,51.5,22.9,51.1,22.5,51z M12.1,58.3c-2.6,0-4.7-2.1-4.7-4.7s2.1-4.7,4.7-4.7s4.7,2.1,4.7,4.7S14.7,58.3,12.1,58.3z"/></g><g><path fill="#ffffff" d="M39.3,7.5c0,3.6-2.9,6.4-6.4,6.4c-3.5,0-6.4-2.9-6.4-6.4c0-3.5,2.9-6.4,6.4-6.4C36.4,1,39.3,3.9,39.3,7.5z"/></g><g><path fill="#ffffff" d="M57.4,32.2l-3,3.5c-0.2,0.2-0.5,0.3-0.8,0.3c-0.3,0-0.6-0.1-0.8-0.3L50,32.2c-0.4-0.4-0.3-1,0.1-1.4    c0.4-0.4,1-0.3,1.4,0.1l1.2,1.4v-6.6h-7.6v17.9c0,1.5-1.2,2.8-2.8,2.8H40v17.2c0,0.5-0.4,1-1,1H26.8c-0.5,0-1-0.5-1-1V46.4h-2.3    c-1.5,0-2.8-1.2-2.8-2.8V25.7h-7.6v6.6l1.2-1.4c0.4-0.4,1-0.5,1.4-0.1c0.4,0.4,0.5,1,0.1,1.4l-3,3.5c-0.2,0.2-0.5,0.3-0.8,0.3    c-0.3,0-0.6-0.1-0.8-0.3l-3-3.5c-0.4-0.4-0.3-1,0.1-1.4c0.4-0.4,1-0.3,1.4,0.1l1.2,1.4v-7.6c0-0.6,0.4-1,1-1h8.6v-3.5    c0-1.7,1.4-3,3-3h18.4c1.6,0,3,1.4,3,3v3.5h8.6c0.6,0,1,0.4,1,1v7.6l1.2-1.4c0.3-0.4,1-0.5,1.4-0.1C57.7,31.2,57.8,31.8,57.4,32.2    z"/></g><path fill="#ffffff" d="M53.7,42.3c-6.2,0-11.3,5.1-11.3,11.3c0,6.2,5.1,11.3,11.3,11.3C59.9,65,65,59.9,65,53.6C65,47.4,59.9,42.3,53.7,42.3z    M55.3,58.6C55.3,58.6,55.3,58.6,55.3,58.6c-0.2,0.1-0.4,0.1-0.7,0.2v1.5c0,0.6-0.4,1-1,1s-1-0.4-1-1v-1.4l0,0   c-0.9,0-2-0.3-2.9-0.7l0.5-1.4c0.6,0.4,1.8,0.7,2.8,0.7c1.6,0,2.3-0.7,2.3-1.5c0-0.9-0.6-1.4-2.2-1.9c-4.5-1.4-3.6-4.8-0.6-5.6l0,0   V47c0-0.6,0.4-1,1-1s1,0.4,1,1v1.5c1,0.1,1.9,0.3,2.5,0.6l-0.5,1.3c-3.4-1.8-6.8,1-2.1,2.5C58.6,54.2,58.2,57.6,55.3,58.6z"/></g></svg>
