<svg xmlns="http://www.w3.org/2000/svg" xmlns:xlink="http://www.w3.org/1999/xlink" version="1.0" x="0px" y="0px" viewBox="0 0 100 100" enable-background="new 0 0 100 100" xml:space="preserve"><path fill="#ffffff" d="M80.563,75.847c1.741-2.637,2.77-5.788,2.77-9.18C83.333,57.461,75.872,50,66.667,50c-0.18,0-0.346,0.046-0.524,0.052  c-0.13-0.904-0.234-1.822-0.413-2.695l10.94-4.531l-2.552-6.158l-10.222,4.238c-2.236-5.938-5.7-10.775-9.896-13.867l6.002-14.486  L53.845,10L48.04,24.011c-1.517-0.443-3.092-0.678-4.703-0.678s-3.188,0.234-4.704,0.678L32.829,10l-6.159,2.552l6.003,14.486  c-4.199,3.092-7.66,7.93-9.896,13.867l-10.225-4.238L10,42.825l10.944,4.531c-0.391,1.928-0.681,3.92-0.824,5.977H10.003V60H20.12  c0.144,2.058,0.434,4.05,0.824,5.977l-10.941,4.531l2.549,6.159l10.225-4.238C26.712,82.884,34.44,90,43.337,90  c6.019,0,11.49-3.288,15.628-8.64c2.314,1.218,4.909,1.973,7.702,1.973c3.395,0,6.546-1.028,9.183-2.773L85.286,90L90,85.286  L80.563,75.847z M43.337,30c4.346,0,8.353,2.845,11.357,7.383c-7.168,3.418-15.547,3.418-22.715,0C34.98,32.839,38.991,30,43.337,30  z M53.841,77.188c-2.891,3.821-6.563,6.146-10.504,6.146c-9.033,0-16.667-12.213-16.667-26.666c0-4.838,0.869-9.408,2.347-13.373  c9.037,4.369,19.597,4.375,28.643,0.007c0.947,2.539,1.608,5.345,1.986,8.301C53.962,54.251,50,59.98,50,66.667  C50,70.677,51.478,74.31,53.841,77.188z M66.667,76.667c-5.524,0-10-4.479-10-10c0-5.527,4.476-10,10-10c5.523,0,10,4.473,10,10  C76.667,72.188,72.19,76.667,66.667,76.667z"/></svg>
