<svg xmlns="http://www.w3.org/2000/svg" viewBox="0 0 64 80" x="0px" y="0px"><title>UI-UX-Design-phone-application</title><g><rect fill="#ffffff" x="33" y="10" width="2" height="2"/><rect  fill="#ffffff"  x="29" y="10" width="2" height="2"/><rect  fill="#ffffff"  x="31" y="52" width="2" height="2"/><rect  fill="#ffffff"  x="11" y="22" width="2" height="2"/><rect  fill="#ffffff"  x="15" y="22" width="2" height="2"/><rect  fill="#ffffff" x="19" y="22" width="2" height="2"/><rect  fill="#ffffff"  x="23" y="22" width="2" height="2"/><rect  fill="#ffffff"  x="27" y="22" width="2" height="2"/><rect  fill="#ffffff"  x="42" y="40" width="2" height="2"/><rect  fill="#ffffff"  x="46" y="40" width="8" height="2"/><rect  fill="#ffffff"  x="42" y="44" width="12" height="2"/><rect  fill="#ffffff"  x="42" y="48" width="12" height="2"/><path  fill="#ffffff"  d="M15,7V18H8a1,1,0,0,0-1,1v8a1,1,0,0,0,1,1h7V57a1,1,0,0,0,1,1H48a1,1,0,0,0,1-1V54h8a1,1,0,0,0,1-1V37a1,1,0,0,0-1-1H49V7a1,1,0,0,0-1-1H16A1,1,0,0,0,15,7ZM9,20H31v6H9ZM47,56H17V50H38v3a1,1,0,0,0,1,1h8Zm9-4H40V38H56ZM39,36a1,1,0,0,0-1,1V48H17V28H32a1,1,0,0,0,1-1V19a1,1,0,0,0-1-1H17V16H47V36ZM47,8v6H17V8Z"/><path  fill="#ffffff"  d="M32,31H28a1,1,0,0,0-1,1v4a1,1,0,0,0,1,1h4a1,1,0,0,0,1-1V32A1,1,0,0,0,32,31Zm-1,4H29V33h2Z"/><path  fill="#ffffff"  d="M20,37h4a1,1,0,0,0,1-1V32a1,1,0,0,0-1-1H20a1,1,0,0,0-1,1v4A1,1,0,0,0,20,37Zm1-4h2v2H21Z"/><path  fill="#ffffff"  d="M42.793,24.855a4,4,0,1,0-5.586,0A5,5,0,0,0,35,29v4a1,1,0,0,0,1,1h8a1,1,0,0,0,1-1V29A5,5,0,0,0,42.793,24.855ZM38,22a2,2,0,1,1,2,2A2,2,0,0,1,38,22Zm5,10H37V29a3,3,0,0,1,6,0Z"/><rect  fill="#ffffff"  x="19" y="39" width="2" height="2"/><rect  fill="#ffffff"  x="23" y="39" width="10" height="2"/><rect  fill="#ffffff"  x="19" y="43" width="14" height="2"/><rect  fill="#ffffff"  x="26" y="60" width="20" height="2"/><rect  fill="#ffffff"  x="11" y="31" width="2" height="16"/><path  fill="#ffffff"  d="M53,6a4,4,0,0,0-4-4H36V4H49a2,2,0,0,1,2,2V22h2Z"/><rect  fill="#ffffff"  x="51" y="24" width="2" height="2"/></g></svg>
